<svg width="277" height="238" viewBox="0 0 277 238" fill="none" xmlns="http://www.w3.org/2000/svg">
<path d="M165.813 63.3235C165.914 63.3358 166.025 63.3652 166.145 63.4114C166.265 63.4577 166.384 63.5156 166.501 63.5851C166.619 63.6546 166.737 63.7203 166.855 63.782C166.973 63.8438 167.08 63.9041 167.175 63.963L166.986 63.9634C166.923 63.9636 166.857 63.9594 166.787 63.9508C166.655 63.9346 166.537 63.9004 166.434 63.8483C166.33 63.7962 166.235 63.7334 166.15 63.66C166.064 63.5865 165.977 63.5285 165.888 63.4861C165.799 63.4437 165.716 63.4099 165.64 63.3849C165.563 63.3753 165.491 63.3823 165.425 63.4057C165.36 63.4291 165.293 63.4563 165.226 63.4875C165.23 63.4565 165.205 63.4376 165.151 63.431C165.212 63.3834 165.318 63.3531 165.469 63.3402C165.62 63.3273 165.735 63.3217 165.813 63.3235ZM167.319 64.0398C167.637 64.0788 167.921 64.1688 168.172 64.3098C168.058 64.3352 167.946 64.3529 167.834 64.3628C167.723 64.3727 167.609 64.3744 167.491 64.3679C167.336 64.3489 167.199 64.3162 167.078 64.2699C167.125 64.2127 167.168 64.1787 167.209 64.1679C167.25 64.1572 167.286 64.1145 167.319 64.0398ZM173.216 53.8075C174.31 53.9418 175.343 54.2143 176.316 54.6251C177.288 55.0358 178.185 55.5514 179.006 56.1718C179.828 56.7921 180.557 57.5154 181.196 58.3416C181.834 59.1678 182.356 60.0466 182.761 60.9779C183.166 61.9093 183.453 62.9048 183.622 63.9646C183.791 65.0243 183.805 66.0965 183.664 67.1812C183.529 68.2745 183.257 69.3076 182.846 70.2804C182.435 71.2532 181.92 72.1501 181.299 72.9712C180.679 73.7924 179.956 74.5221 179.129 75.1605C178.303 75.7989 177.425 76.3206 176.493 76.7257C175.562 77.1308 174.566 77.4178 173.507 77.5867C172.447 77.7556 171.375 77.7695 170.29 77.6284C169.197 77.4941 168.164 77.2216 167.191 76.8108C166.218 76.4001 165.321 75.8845 164.5 75.2641C163.679 74.6437 162.949 73.9205 162.311 73.0943C161.672 72.2681 161.15 71.3893 160.745 70.458C160.34 69.5266 160.053 68.5311 159.884 67.4713C159.715 66.4116 159.702 65.3394 159.843 64.2547C159.977 63.1614 160.25 62.1283 160.66 61.1555C161.071 60.1827 161.587 59.2858 162.207 58.4647C162.827 57.6435 163.551 56.9138 164.377 56.2754C165.203 55.637 166.082 55.1153 167.013 54.7102C167.944 54.3051 168.94 54.0181 170 53.8492C171.06 53.6803 172.132 53.6664 173.216 53.8075ZM181.286 61.3517C181.199 61.1678 181.11 60.9916 181.021 60.8232C180.931 60.6548 180.838 60.482 180.742 60.3049C180.718 60.3727 180.692 60.4208 180.665 60.4489C180.638 60.4771 180.614 60.545 180.593 60.6526C180.584 60.7224 180.603 60.7916 180.65 60.8603C180.697 60.929 180.759 60.9996 180.837 61.0721C180.914 61.1446 180.994 61.2016 181.075 61.2431C181.157 61.2846 181.227 61.3208 181.286 61.3517ZM180.624 60.1132C180.616 60.1753 180.599 60.2165 180.573 60.2369L180.643 60.2455C180.674 60.2493 180.697 60.256 180.711 60.2657L180.624 60.1132ZM170.473 76.1396C171.357 76.2482 172.235 76.242 173.108 76.1209C173.981 75.9999 174.819 75.7801 175.621 75.4615C176.424 75.143 177.184 74.7247 177.901 74.2067C178.618 73.6887 179.262 73.0909 179.833 72.4133C179.761 72.1683 179.693 71.9199 179.629 71.668C179.566 71.4162 179.55 71.1624 179.581 70.9065C179.616 70.6273 179.655 70.4039 179.699 70.2362C179.743 70.0684 179.789 69.9206 179.836 69.7926C179.883 69.6645 179.913 69.554 179.924 69.461C179.936 69.3679 179.939 69.2463 179.934 69.0961C179.928 68.9459 179.882 68.7789 179.794 68.5949C179.707 68.411 179.593 68.153 179.453 67.8209C179.467 67.7676 179.488 67.6954 179.515 67.6042C179.542 67.5131 179.569 67.418 179.597 67.3191C179.625 67.2202 179.64 67.1277 179.643 67.0414C179.646 66.9552 179.635 66.8791 179.612 66.8133C179.413 66.7652 179.209 66.6969 178.999 66.6082C178.79 66.5195 178.608 66.4026 178.452 66.2576L178.529 66.208C178.425 66.2189 178.321 66.2375 178.215 66.2639C178.11 66.2903 178.008 66.321 177.909 66.3561C177.81 66.3912 177.705 66.4098 177.595 66.412C177.484 66.4142 177.378 66.4168 177.275 66.42L177.092 66.3738L177.137 66.2967C177.024 66.3144 176.903 66.3389 176.774 66.3701C176.644 66.4014 176.521 66.4099 176.404 66.3956C176.327 66.3861 176.218 66.3452 176.077 66.2728C175.936 66.2004 175.797 66.1164 175.659 66.0207C175.522 65.9251 175.4 65.8236 175.295 65.7163C175.191 65.6089 175.143 65.5126 175.154 65.4273L175.181 65.3953C175.148 65.344 175.103 65.2952 175.046 65.2488C174.989 65.2024 174.935 65.1565 174.886 65.111C174.836 65.0656 174.791 65.0167 174.75 64.9645C174.709 64.9123 174.697 64.8556 174.712 64.7945L174.853 64.7055L174.59 64.6378L174.539 64.2774C174.55 64.3181 174.583 64.3379 174.638 64.3368C174.694 64.3357 174.738 64.3254 174.772 64.306L174.38 64.0336L174.763 63.3249C174.704 62.9083 174.715 62.5948 174.796 62.3844C174.877 62.1739 175.003 62.0084 175.175 61.8879C175.348 61.7674 175.535 61.6488 175.739 61.5321C175.942 61.4153 176.155 61.2487 176.379 61.0321L176.361 60.8883L177.243 60.0521L177.42 60.0503C177.637 60.0769 177.882 60.0992 178.156 60.117C178.429 60.1348 178.708 60.1415 178.992 60.137C179.276 60.1326 179.556 60.1276 179.832 60.1222C180.108 60.1168 180.362 60.0968 180.595 60.0624C180.383 59.7373 180.157 59.4262 179.918 59.1292C179.679 58.8323 179.419 58.5445 179.139 58.266C179.05 58.2866 178.94 58.3164 178.809 58.3554C178.678 58.3944 178.546 58.449 178.411 58.519C178.277 58.5891 178.168 58.6702 178.086 58.7625C178.004 58.8547 177.948 58.9541 177.92 59.0608L177.962 59.2904C177.795 59.4981 177.623 59.6186 177.445 59.6519C177.268 59.6853 177.09 59.6948 176.911 59.6807C176.731 59.6665 176.545 59.6437 176.352 59.6121C176.159 59.5805 175.969 59.5926 175.781 59.6482L175.644 59.2299L175.901 58.5767L175.739 58.2616L177.828 57.8807C177.77 57.6531 177.65 57.4731 177.47 57.3408C177.289 57.2084 177.083 57.1279 176.85 57.0993L176.864 56.983L177.528 56.9584C176.851 56.5131 176.136 56.1497 175.384 55.8684C174.631 55.587 173.848 55.3963 173.033 55.2963C172.359 55.2134 171.684 55.1974 171.009 55.2483C170.333 55.2991 169.674 55.411 169.031 55.5838C168.388 55.7567 167.757 55.994 167.137 56.2957C166.518 56.5974 165.943 56.9519 165.413 57.359C165.614 57.3838 165.763 57.4532 165.859 57.5674C165.955 57.6815 166.042 57.8063 166.12 57.9418C166.198 58.0773 166.281 58.2017 166.37 58.3149C166.458 58.428 166.587 58.499 166.757 58.5277L166.96 58.411L166.968 58.1522L167.419 57.6527L167.222 56.7549C167.264 56.7364 167.327 56.7047 167.411 56.66C167.495 56.6152 167.565 56.5962 167.619 56.6029C167.852 56.6314 168.028 56.665 168.15 56.7035C168.271 56.742 168.374 56.798 168.46 56.8714C168.545 56.9449 168.616 57.0441 168.671 57.169C168.727 57.2938 168.817 57.4545 168.942 57.651L169.401 57.3767C169.475 57.4173 169.593 57.4829 169.755 57.5737C169.917 57.6644 170.081 57.7711 170.247 57.8938C170.413 58.0166 170.551 58.1398 170.662 58.2636C170.773 58.3874 170.826 58.4963 170.822 58.5903C170.808 58.7066 170.754 58.7945 170.66 58.8538C170.566 58.9131 170.447 58.9574 170.301 58.9868C170.156 59.0162 170.008 59.0334 169.858 59.0386C169.708 59.0438 169.557 59.0567 169.405 59.0774C169.253 59.098 169.135 59.123 169.053 59.1522C168.971 59.1815 168.916 59.2417 168.889 59.3328L169.537 59.6367C169.365 59.7495 169.184 59.8492 168.992 59.9358C168.801 60.0225 168.602 60.1004 168.397 60.1696L168.419 60.3731L167.298 60.6604L167.258 60.986L167.172 61.0109L167.28 60.611L167.235 60.5936C167.181 60.587 167.148 60.5948 167.138 60.6171C167.127 60.6394 167.12 60.6661 167.116 60.6971C167.112 60.7281 167.116 60.7601 167.128 60.793C167.139 60.8259 167.14 60.8496 167.131 60.8642L166.99 60.7642L167.007 60.8136C167.004 60.8368 167.012 60.8732 167.029 60.9226C167.047 60.9719 167.073 61.0184 167.107 61.0619C167.141 61.1055 167.167 61.148 167.185 61.1897C167.204 61.2313 167.217 61.2526 167.225 61.2535C167.222 61.2768 167.203 61.2982 167.17 61.3176C167.136 61.3371 167.095 61.3478 167.048 61.3499C167 61.3519 166.968 61.3597 166.95 61.3733C166.933 61.3869 166.932 61.3908 166.949 61.3849C167.057 61.3983 167.08 61.4089 167.016 61.4168C166.952 61.4247 166.85 61.4515 166.711 61.4974C166.571 61.5432 166.44 61.6176 166.317 61.7206C166.194 61.8236 166.111 61.9865 166.068 62.2095C166.052 62.3413 166.04 62.4698 166.033 62.5948C166.025 62.7198 166.006 62.8473 165.974 62.9772C165.902 62.6692 165.766 62.4243 165.568 62.2425C165.37 62.0608 165.116 61.9509 164.806 61.9128L164.3 61.8978L164.524 62.0907C164.394 62.059 164.261 62.0268 164.123 61.9941C163.985 61.9615 163.842 61.94 163.694 61.9296C163.546 61.9193 163.41 61.9341 163.287 61.9741C163.164 62.0141 163.038 62.0812 162.908 62.1755L162.774 62.6903C162.744 62.9385 162.773 63.1467 162.863 63.3152C162.952 63.4836 163.132 63.5883 163.403 63.6294C163.635 63.658 163.868 63.6512 164.102 63.6091C164.335 63.5669 164.566 63.5126 164.795 63.4463C164.704 63.6083 164.606 63.7616 164.502 63.9062C164.398 64.0508 164.315 64.2138 164.253 64.3951L164.396 64.4835C164.597 64.3823 164.77 64.3838 164.915 64.4882C165.059 64.5925 165.195 64.7352 165.322 64.9161C165.45 65.0971 165.581 65.2823 165.715 65.472C165.849 65.6616 166 65.8062 166.169 65.9056L165.748 66.0664L164.882 65.4287C164.888 65.4452 164.891 65.481 164.892 65.5362C164.893 65.5915 164.888 65.6026 164.876 65.5697L164.545 64.8088C164.297 64.7705 164.039 64.6994 163.768 64.5953C163.497 64.4912 163.226 64.3634 162.953 64.2118C162.681 64.0602 162.429 63.8994 162.198 63.7294C161.967 63.5593 161.756 63.3839 161.566 63.2031L161.332 64.4376C161.215 65.3836 161.23 66.3221 161.375 67.253C161.521 68.184 161.777 69.0735 162.145 69.9215C162.514 70.7696 162.995 71.5608 163.589 72.295C164.184 73.0293 164.864 73.6756 165.63 74.2341C165.611 74.0665 165.627 73.9032 165.678 73.7441C165.729 73.5851 165.788 73.427 165.855 73.2699C165.921 73.1128 165.992 72.9561 166.066 72.8C166.14 72.6438 166.188 72.4804 166.209 72.3098C166.239 72.0617 166.232 71.7972 166.188 71.5162C166.144 71.2353 166.085 70.9486 166.011 70.6561C165.936 70.3636 165.85 70.0736 165.751 69.786C165.653 69.4984 165.58 69.2297 165.532 68.9798C165.484 68.7299 165.449 68.4974 165.428 68.2823C165.408 68.0672 165.453 67.8878 165.565 67.7442L165.401 67.6413C165.461 67.5385 165.536 67.4414 165.626 67.3502C165.716 67.2589 165.809 67.1681 165.907 67.0777C166.005 66.9874 166.084 66.887 166.145 66.7764C166.206 66.6658 166.247 66.5528 166.269 66.4374C166.279 66.3599 166.273 66.2766 166.253 66.1874C166.232 66.0983 166.215 66.0136 166.201 65.9332L166.438 66.0214C166.607 65.7351 166.811 65.5516 167.049 65.4706C167.287 65.3897 167.577 65.3663 167.92 65.4005C167.958 65.4052 168.038 65.4307 168.158 65.477C168.278 65.5233 168.405 65.5821 168.538 65.6535C168.671 65.725 168.797 65.7838 168.918 65.8301C169.038 65.8763 169.127 65.9188 169.185 65.9574C169.179 66.0117 169.205 66.0504 169.265 66.0735C169.326 66.0966 169.357 66.1281 169.36 66.1678L169.325 66.258C169.348 66.2686 169.399 66.3024 169.478 66.3594C169.558 66.4164 169.644 66.486 169.736 66.5682C169.828 66.6503 169.91 66.7233 169.981 66.7871C170.052 66.8509 170.101 66.9003 170.128 66.9351C170.267 66.9522 170.452 67.0221 170.681 67.1447C170.91 67.2673 171.159 67.416 171.429 67.5908C171.698 67.7656 171.961 67.9671 172.216 68.1952C172.472 68.4234 172.711 68.6496 172.936 68.874C173.16 69.0983 173.326 69.3155 173.434 69.5256C173.542 69.7356 173.599 69.9157 173.604 70.0659L173.157 70.4361C173.14 70.8353 173.075 71.1344 172.964 71.3333C172.853 71.5322 172.7 71.6905 172.504 71.8081C172.309 71.9258 172.089 72.0169 171.845 72.0813C171.601 72.1458 171.333 72.2467 171.04 72.3839C171.021 72.539 170.962 72.701 170.863 72.8698C170.763 73.0386 170.645 73.1973 170.509 73.3458C170.373 73.4944 170.217 73.6129 170.04 73.7015C169.864 73.79 169.695 73.8243 169.532 73.8043L169.089 73.3721C169.103 73.3895 169.099 73.4166 169.079 73.4535C169.059 73.4904 169.038 73.4957 169.018 73.4696C169.077 73.6265 169.076 73.7995 169.013 73.9885C168.951 74.1776 168.861 74.3673 168.743 74.5575C168.625 74.7476 168.497 74.9247 168.359 75.0888C168.22 75.2529 168.097 75.3912 167.989 75.5038C168.394 75.6638 168.803 75.7967 169.215 75.9024C169.627 76.0081 170.046 76.0872 170.473 76.1396Z" fill="black"/>
<path fill-rule="evenodd" clip-rule="evenodd" d="M96.258 65.6435C96.4008 65.5664 96.5176 65.4487 96.5936 65.3053C96.6696 65.162 96.7015 64.9993 96.6852 64.8378C96.6689 64.6764 96.6051 64.5233 96.502 64.398C96.3989 64.2727 96.261 64.1808 96.1056 64.1337L81.6462 59.7467C81.4913 59.6996 81.3259 59.6994 81.1709 59.746C81.0159 59.7926 80.878 59.8839 80.7747 60.0085C80.6714 60.1332 80.6072 60.2855 80.5901 60.4465C80.5731 60.6075 80.6039 60.7699 80.6788 60.9134L83.2693 65.8806C83.3668 66.0677 83.3887 66.2851 83.3304 66.4878L81.7806 71.8713C81.7358 72.0268 81.7379 72.1922 81.7867 72.3465C81.8354 72.5009 81.9287 72.6374 82.0548 72.739C82.1808 72.8405 82.3341 72.9026 82.4953 72.9174C82.6565 72.9322 82.8185 72.899 82.9609 72.8221L96.258 65.6435Z" fill="black"/>
<g filter="url(#filter0_i_2_13)">
<path d="M134.249 158.488L190.896 87.2125" stroke="#3C3A3A" stroke-width="20" stroke-linecap="round"/>
</g>
<g filter="url(#filter1_i_2_13)">
<path d="M110.573 100.166L150.026 48.9434" stroke="#3C3A3A" stroke-width="20" stroke-linecap="round"/>
</g>
<g filter="url(#filter2_d_2_13)">
<path d="M224.355 129.609L129.995 161.332" stroke="black" stroke-width="20" stroke-linecap="round"/>
</g>
<g filter="url(#filter3_d_2_13)">
<path d="M194.463 85.8928L107.675 103.441" stroke="black" stroke-width="20" stroke-linecap="round"/>
</g>
<path d="M81.7229 66.4188C81.7229 66.4188 34.2969 79.9261 80.037 113.252C125.777 146.578 101.265 157.481 101.265 157.481" stroke="black" stroke-dasharray="2 2"/>
<g filter="url(#filter4_f_2_13)">
<path d="M82.7156 66.5407C82.7156 66.5407 35.2895 80.0481 81.0297 113.374C126.77 146.7 102.258 157.603 102.258 157.603" stroke="black" stroke-dasharray="2 2"/>
</g>
<defs>
<filter id="filter0_i_2_13" x="124.249" y="77.2121" width="76.6479" height="95.2764" filterUnits="userSpaceOnUse" color-interpolation-filters="sRGB">
<feFlood flood-opacity="0" result="BackgroundImageFix"/>
<feBlend mode="normal" in="SourceGraphic" in2="BackgroundImageFix" result="shape"/>
<feColorMatrix in="SourceAlpha" type="matrix" values="0 0 0 0 0 0 0 0 0 0 0 0 0 0 0 0 0 0 127 0" result="hardAlpha"/>
<feOffset dy="4"/>
<feGaussianBlur stdDeviation="2"/>
<feComposite in2="hardAlpha" operator="arithmetic" k2="-1" k3="1"/>
<feColorMatrix type="matrix" values="0 0 0 0 0 0 0 0 0 0 0 0 0 0 0 0 0 0 0.25 0"/>
<feBlend mode="normal" in2="shape" result="effect1_innerShadow_2_13"/>
</filter>
<filter id="filter1_i_2_13" x="100.573" y="38.9429" width="59.4534" height="75.2238" filterUnits="userSpaceOnUse" color-interpolation-filters="sRGB">
<feFlood flood-opacity="0" result="BackgroundImageFix"/>
<feBlend mode="normal" in="SourceGraphic" in2="BackgroundImageFix" result="shape"/>
<feColorMatrix in="SourceAlpha" type="matrix" values="0 0 0 0 0 0 0 0 0 0 0 0 0 0 0 0 0 0 127 0" result="hardAlpha"/>
<feOffset dy="4"/>
<feGaussianBlur stdDeviation="2"/>
<feComposite in2="hardAlpha" operator="arithmetic" k2="-1" k3="1"/>
<feColorMatrix type="matrix" values="0 0 0 0 0 0 0 0 0 0 0 0 0 0 0 0 0 0 0.25 0"/>
<feBlend mode="normal" in2="shape" result="effect1_innerShadow_2_13"/>
</filter>
<filter id="filter2_d_2_13" x="115.993" y="119.606" width="122.365" height="59.7288" filterUnits="userSpaceOnUse" color-interpolation-filters="sRGB">
<feFlood flood-opacity="0" result="BackgroundImageFix"/>
<feColorMatrix in="SourceAlpha" type="matrix" values="0 0 0 0 0 0 0 0 0 0 0 0 0 0 0 0 0 0 127 0" result="hardAlpha"/>
<feOffset dy="4"/>
<feGaussianBlur stdDeviation="2"/>
<feComposite in2="hardAlpha" operator="out"/>
<feColorMatrix type="matrix" values="0 0 0 0 0 0 0 0 0 0 0 0 0 0 0 0 0 0 0.25 0"/>
<feBlend mode="normal" in2="BackgroundImageFix" result="effect1_dropShadow_2_13"/>
<feBlend mode="normal" in="SourceGraphic" in2="effect1_dropShadow_2_13" result="shape"/>
</filter>
<filter id="filter3_d_2_13" x="93.6733" y="75.8909" width="114.791" height="45.5524" filterUnits="userSpaceOnUse" color-interpolation-filters="sRGB">
<feFlood flood-opacity="0" result="BackgroundImageFix"/>
<feColorMatrix in="SourceAlpha" type="matrix" values="0 0 0 0 0 0 0 0 0 0 0 0 0 0 0 0 0 0 127 0" result="hardAlpha"/>
<feOffset dy="4"/>
<feGaussianBlur stdDeviation="2"/>
<feComposite in2="hardAlpha" operator="out"/>
<feColorMatrix type="matrix" values="0 0 0 0 0 0 0 0 0 0 0 0 0 0 0 0 0 0 0.25 0"/>
<feBlend mode="normal" in2="BackgroundImageFix" result="effect1_dropShadow_2_13"/>
<feBlend mode="normal" in="SourceGraphic" in2="effect1_dropShadow_2_13" result="shape"/>
</filter>
<filter id="filter4_f_2_13" x="56.6309" y="62.0599" width="56.687" height="100" filterUnits="userSpaceOnUse" color-interpolation-filters="sRGB">
<feFlood flood-opacity="0" result="BackgroundImageFix"/>
<feBlend mode="normal" in="SourceGraphic" in2="BackgroundImageFix" result="shape"/>
<feGaussianBlur stdDeviation="2" result="effect1_foregroundBlur_2_13"/>
</filter>
</defs>
</svg>
